<?xml version="1.0" encoding="UTF-8" standalone="no"?>
<!-- Created with Inkscape (http://www.inkscape.org/) -->

<svg
   xmlns:dc="http://purl.org/dc/elements/1.1/"
   xmlns:cc="http://creativecommons.org/ns#"
   xmlns:rdf="http://www.w3.org/1999/02/22-rdf-syntax-ns#"
   xmlns:svg="http://www.w3.org/2000/svg"
   xmlns="http://www.w3.org/2000/svg"
   xmlns:sodipodi="http://sodipodi.sourceforge.net/DTD/sodipodi-0.dtd"
   xmlns:inkscape="http://www.inkscape.org/namespaces/inkscape"
   width="320"
   height="280"
   viewBox="0 0 320.00001 280"
   id="svg8512"
   version="1.1"
   inkscape:version="0.91 r13725"
   sodipodi:docname="sigry_video.svg">
  <defs
     id="defs8514">
    <clipPath
       clipPathUnits="userSpaceOnUse"
       id="clipPath6962">
      <path
         d="m 723.81,2002 c -1.925,0 -3.5,-1.575 -3.5,-3.5 l 0,0 0,-1.6 0,-5 0,-59.4 c 0,-1.925 1.575,-3.5 3.5,-3.5 l 0,0 75.999,0 c 1.925,0 3.5,1.575 3.5,3.5 l 0,0 0,61 c 0,1.925 -1.575,3.5 -3.5,3.5 l 0,0 -43.376,0 c -0.919,0 -1.837,0.408 -2.553,1.021 l 0,0 -2.958,2.959 c -0.714,0.714 -1.531,1.02 -2.551,1.02 l 0,0 -24.561,0 z m -0.501,-9.6 c 0.123,0.699 0.722,1.3 1.422,1.6 l 0,0 74.401,0 c 0.699,-0.3 1.299,-0.901 1.178,-1.6 l 0,0 0,-0.4 -77.001,0 0,0.4 z"
         id="path6964"
         inkscape:connector-curvature="0" />
    </clipPath>
    <linearGradient
       x1="0"
       y1="0"
       x2="1"
       y2="0"
       gradientUnits="userSpaceOnUse"
       gradientTransform="matrix(0,-73.100136,73.100136,0,761.80988,2002.1001)"
       spreadMethod="pad"
       id="linearGradient6970">
      <stop
         style="stop-opacity:1;stop-color:#99896e"
         offset="0"
         id="stop6972" />
      <stop
         style="stop-opacity:1;stop-color:#776b58"
         offset="1"
         id="stop6974" />
    </linearGradient>
    <clipPath
       clipPathUnits="userSpaceOnUse"
       id="clipPath21317">
      <path
         d="m 896.373,2002 c -1.925,0 -3.5,-1.575 -3.5,-3.5 l 0,0 0,-1.6 0,-5 0,-59.4 c 0,-1.925 1.575,-3.5 3.5,-3.5 l 0,0 76,0 c 1.925,0 3.5,1.575 3.5,3.5 l 0,0 0,61 c 0,1.925 -1.575,3.5 -3.5,3.5 l 0,0 -43.377,0 c -0.919,0 -1.837,0.408 -2.551,1.021 l 0,0 -2.96,2.959 c -0.713,0.714 -1.529,1.02 -2.55,1.02 l 0,0 -24.562,0 z m -0.5,-9.6 c -0.283,0.699 0.317,1.3 1.017,1.6 l 0,0 74.4,0 c 0.7,-0.3 1.299,-0.901 1.583,-1.6 l 0,0 0,-0.4 -77,0 0,0.4 z"
         id="path21319"
         inkscape:connector-curvature="0" />
    </clipPath>
    <linearGradient
       x1="0"
       y1="0"
       x2="1"
       y2="0"
       gradientUnits="userSpaceOnUse"
       gradientTransform="matrix(0,-73.100136,73.100136,0,934.37323,2002.1001)"
       spreadMethod="pad"
       id="linearGradient21325">
      <stop
         style="stop-opacity:1;stop-color:#99896e"
         offset="0"
         id="stop21327" />
      <stop
         style="stop-opacity:1;stop-color:#776b58"
         offset="1"
         id="stop21329" />
    </linearGradient>
  </defs>
  <sodipodi:namedview
     id="base"
     pagecolor="#ffffff"
     bordercolor="#666666"
     borderopacity="1.0"
     inkscape:pageopacity="0"
     inkscape:pageshadow="2"
     inkscape:zoom="0.35355339"
     inkscape:cx="99.726541"
     inkscape:cy="136.85915"
     inkscape:document-units="px"
     inkscape:current-layer="layer1"
     showgrid="false"
     objecttolerance="10000"
     inkscape:window-width="1362"
     inkscape:window-height="711"
     inkscape:window-x="0"
     inkscape:window-y="36"
     inkscape:window-maximized="0"
     showguides="true"
     inkscape:guide-bbox="true"
     guidetolerance="10000"
     units="px">
    <sodipodi:guide
       position="319.55469,819.01174"
       orientation="1,0"
       id="guide9103" />
    <sodipodi:guide
       position="-0.4453125,902.00783"
       orientation="1,0"
       id="guide9105" />
    <sodipodi:guide
       position="59.625,1050.3438"
       orientation="0,1"
       id="guide9107" />
    <sodipodi:guide
       position="84.203126,770.34767"
       orientation="0,1"
       id="guide9109" />
  </sodipodi:namedview>
  <metadata
     id="metadata8517">
    <rdf:RDF>
      <cc:Work
         rdf:about="">
        <dc:format>image/svg+xml</dc:format>
        <dc:type
           rdf:resource="http://purl.org/dc/dcmitype/StillImage" />
        <dc:title></dc:title>
      </cc:Work>
    </rdf:RDF>
  </metadata>
  <g
     inkscape:label="Capa 1"
     inkscape:groupmode="layer"
     id="layer1"
     transform="translate(0,-772.36219)">
    <g
       transform="matrix(3.8554217,0,0,-3.8356164,-3442.4019,8451.2662)"
       id="g24054">
      <g
         id="g21313">
        <g
           clip-path="url(#clipPath21317)"
           id="g21315">
          <g
             id="g21321">
            <g
               id="g21323">
              <path
                 inkscape:connector-curvature="0"
                 id="path21331"
                 style="fill:url(#linearGradient21325);stroke:none"
                 d="m 896.373,2002 c -1.925,0 -3.5,-1.575 -3.5,-3.5 l 0,0 0,-1.6 0,-5 0,-59.4 c 0,-1.925 1.575,-3.5 3.5,-3.5 l 0,0 76,0 c 1.925,0 3.5,1.575 3.5,3.5 l 0,0 0,61 c 0,1.925 -1.575,3.5 -3.5,3.5 l 0,0 -43.377,0 c -0.919,0 -1.837,0.408 -2.551,1.021 l 0,0 -2.96,2.959 c -0.713,0.714 -1.529,1.02 -2.55,1.02 l 0,0 -24.562,0 z m -0.5,-9.6 c -0.283,0.699 0.317,1.3 1.017,1.6 l 0,0 74.4,0 c 0.7,-0.3 1.299,-0.901 1.583,-1.6 l 0,0 0,-0.4 -77,0 0,0.4 z" />
            </g>
          </g>
        </g>
      </g>
      <g
         transform="translate(926.2734,1972.5)"
         id="g21341">
        <path
           inkscape:connector-curvature="0"
           id="path21343"
           style="fill:#ffffff;fill-opacity:1;fill-rule:nonzero;stroke:none"
           d="m 0,0 c -0.101,0 -0.2,0 -0.2,-0.1 -0.1,0 -0.2,-0.1 -0.2,-0.4 l 0,-21.8 c 0,-0.2 0.2,-0.3 0.2,-0.4 0.099,0 0.2,-0.1 0.4,0 l 18.3,10.9 c 0.2,0.1 0.2,0.3 0.2,0.4 0,0.1 0,0.3 -0.2,0.4 L 0.2,-0.1 C 0.1,-0.1 0.1,0 0,0 m -0.4,-24.3 c -0.3,0 -0.701,0.1 -1,0.3 -0.6,0.3 -1,1 -1,1.7 l 0,21.8 c 0,0.7 0.4,1.3 1,1.7 0.6,0.3 1.299,0.3 1.9,0 L 18.8,-9.7 c 0.599,-0.4 0.9,-1 0.9,-1.7 0,-0.7 -0.4,-1.3 -0.9,-1.7 L 0.6,-24 c -0.3,-0.2 -0.701,-0.3 -1,-0.3" />
      </g>
    </g>
  </g>
</svg>
