<?xml version="1.0" encoding="utf-8"?>
<!-- Generator: Adobe Illustrator 21.0.0, SVG Export Plug-In . SVG Version: 6.00 Build 0)  -->
<svg version="1.1" id="Capa_1" xmlns="http://www.w3.org/2000/svg" xmlns:xlink="http://www.w3.org/1999/xlink" x="0px" y="0px"
	 viewBox="0 0 35 35" style="enable-background:new 0 0 35 35;" xml:space="preserve">
<style type="text/css">
	
		.st0{fill-rule:evenodd;clip-rule:evenodd;fill:none;stroke:#4D4D4D;stroke-linecap:round;stroke-linejoin:round;stroke-miterlimit:10;}
	.st1{fill:none;stroke:#4D4D4D;stroke-linecap:round;stroke-linejoin:round;stroke-miterlimit:10;}
</style>
<g>
	<g>
		<g>
			<g>
				<path class="st0" d="M16.4,14.6C16.2,14.9,16,15,15.8,15c-0.4,1.4-1.6,2.6-1.6,2.6c0,0.4,0.3,1.2,0.4,1.5
					c-0.2,0.2-0.3,0.5-0.5,0.7c-1.1,0.9-2.9,0.9-3.8-0.7c0.2-0.4,0.4-1.1,0.4-1.5c0,0-1.3-1-1.6-2.6c-0.2,0-0.4-0.2-0.6-0.4"/>
				<path class="st0" d="M17.2,20.9"/>
				<path class="st0" d="M7.6,20.9c-2.2,1.4-3.8,1.1-4.2,4.8h9"/>
				<path class="st0" d="M10.3,11c-0.5,1.8-1.8,2.5-1.9,1.7c-1.1-6.6,8.9-6.7,8,0.1c0,0.1-0.1,0.3-0.1,0.4c-0.1-0.1-0.1-0.1-0.2-0.1
					c-0.2-0.1-0.2-0.3-0.4-0.4c-0.3-0.3-0.6-0.1-1.1,0.1C12.8,13.4,10.7,12.7,10.3,11L10.3,11z"/>
			</g>
			<g>
				<line class="st1" x1="10" y1="19.1" x2="7.6" y2="20.9"/>
				<line class="st1" x1="14.8" y1="19.1" x2="17.2" y2="20.9"/>
			</g>
		</g>
		<g>
			<g>
				<path class="st0" d="M16.6,23.6L16.6,23.6c0.3,0.3,1.1,0.8,1.6,0.9C16,26,14.4,25.6,14,29.3h9h0.1H32c-0.3-3.6-1.9-3.5-4.2-4.8
					v0c0.6,0,1.4-0.5,1.7-0.9c-1.3,0-2-0.9-2.2-2c-0.2-1.2-0.3-2.5-0.4-3.4c-0.2,0.2-0.4,0.4-0.6,0.4c-0.4,1.4-1.6,2.6-1.6,2.6
					c0,0.4,0.3,1.2,0.4,1.5c-0.2,0.2-0.3,0.5-0.5,0.7c-1.1,0.9-2.9,0.9-3.8-0.7c0.2-0.4,0.4-1.1,0.4-1.5c0,0-1.3-1-1.6-2.6
					c-0.2,0-0.4-0.2-0.6-0.4c0,0.9-0.1,2.2-0.2,3.4C18.6,22.7,18,23.6,16.6,23.6L16.6,23.6z"/>
				<path class="st0" d="M20.9,14.6c-0.5,1.8-1.8,2.5-1.9,1.7c-1.1-6.6,8.9-6.7,8,0.1c0,0.1-0.1,0.3-0.1,0.4
					c-0.1-0.1-0.1-0.1-0.2-0.1c-0.2-0.1-0.2-0.3-0.4-0.4c-0.3-0.3-0.6-0.1-1.1,0.1C23.4,17,21.3,16.3,20.9,14.6L20.9,14.6z"/>
			</g>
			<line class="st1" x1="20.6" y1="22.7" x2="18.2" y2="24.5"/>
			<line class="st1" x1="25.4" y1="22.7" x2="27.8" y2="24.5"/>
		</g>
	</g>
	<polyline class="st0" points="2.5,21.9 2.5,4.5 32.5,4.5 32.5,25.3 	"/>
	<polyline class="st0" points="32.5,31 32.5,32.5 2.5,32.5 2.5,27.7 	"/>
	<line class="st1" x1="2.5" y1="2.5" x2="32.5" y2="2.5"/>
</g>
</svg>
