<?xml version="1.0" encoding="utf-8"?>
<!-- Generator: Adobe Illustrator 21.0.0, SVG Export Plug-In . SVG Version: 6.00 Build 0)  -->
<svg version="1.1" id="Capa_1" xmlns="http://www.w3.org/2000/svg" xmlns:xlink="http://www.w3.org/1999/xlink" x="0px" y="0px"
	 viewBox="0 0 35 35" style="enable-background:new 0 0 35 35;" xml:space="preserve">
<style type="text/css">
	
		.st0{fill-rule:evenodd;clip-rule:evenodd;fill:none;stroke:#4D4D4D;stroke-linecap:round;stroke-linejoin:round;stroke-miterlimit:10;}
	.st1{fill:none;stroke:#4D4D4D;stroke-linecap:round;stroke-linejoin:round;stroke-miterlimit:10;}
</style>
<g>
	<rect x="2.5" y="2.5" class="st0" width="30" height="30"/>
	<line class="st1" x1="19.5" y1="25.5" x2="19.5" y2="26.5"/>
	<rect x="2.5" y="16.5" class="st0" width="30" height="16"/>
	<rect x="4.5" y="18.5" class="st0" width="7" height="12"/>
	<rect x="23.5" y="18.5" class="st0" width="7" height="12"/>
	<rect x="13.5" y="18.5" class="st0" width="8" height="14"/>
	<g>
		<line class="st1" x1="5.5" y1="5" x2="5.5" y2="14"/>
		<line class="st1" x1="8.5" y1="5" x2="8.5" y2="14"/>
		<line class="st1" x1="11.5" y1="5" x2="11.5" y2="14"/>
		<line class="st1" x1="14.5" y1="5" x2="14.5" y2="14"/>
		<line class="st1" x1="17.5" y1="5" x2="17.5" y2="14"/>
		<line class="st1" x1="20.5" y1="5" x2="20.5" y2="14"/>
		<line class="st1" x1="23.5" y1="5" x2="23.5" y2="14"/>
		<line class="st1" x1="26.5" y1="5" x2="26.5" y2="14"/>
		<line class="st1" x1="29.5" y1="5" x2="29.5" y2="14"/>
	</g>
</g>
</svg>
