<?xml version="1.0" encoding="utf-8"?>
<!-- Generator: Adobe Illustrator 21.0.0, SVG Export Plug-In . SVG Version: 6.00 Build 0)  -->
<svg version="1.1" id="Capa_1" xmlns="http://www.w3.org/2000/svg" xmlns:xlink="http://www.w3.org/1999/xlink" x="0px" y="0px"
	 viewBox="0 0 35 35" style="enable-background:new 0 0 35 35;" xml:space="preserve">
<style type="text/css">
	
		.st0{fill-rule:evenodd;clip-rule:evenodd;fill:none;stroke:#4D4D4D;stroke-linecap:round;stroke-linejoin:round;stroke-miterlimit:10;}
	.st1{fill:none;stroke:#4D4D4D;stroke-linecap:round;stroke-linejoin:round;stroke-miterlimit:10;}
</style>
<g>
	<g>
		<rect x="9.9" y="22.5" class="st0" width="3.8" height="7.7"/>
		<rect x="15.6" y="22.5" class="st0" width="3.8" height="10"/>
		<rect x="4.2" y="22.5" class="st0" width="3.8" height="7.7"/>
		<rect x="27" y="22.5" class="st0" width="3.8" height="7.7"/>
		<rect x="21.3" y="22.5" class="st0" width="3.8" height="7.7"/>
	</g>
	<g>
		<rect x="9.9" y="10.5" class="st0" width="3.8" height="7.7"/>
		<rect x="4.2" y="10.5" class="st0" width="3.8" height="7.7"/>
		<rect x="27" y="10.5" class="st0" width="3.8" height="7.7"/>
		<rect x="21.3" y="10.5" class="st0" width="3.8" height="7.7"/>
		<rect x="15.6" y="10.5" class="st0" width="3.8" height="7.7"/>
	</g>
	<g>
		<line class="st1" x1="5.5" y1="4" x2="5.5" y2="7"/>
		<line class="st1" x1="8.5" y1="4" x2="8.5" y2="7"/>
		<line class="st1" x1="11.5" y1="4" x2="11.5" y2="7"/>
		<line class="st1" x1="14.5" y1="4" x2="14.5" y2="7"/>
		<line class="st1" x1="17.5" y1="4" x2="17.5" y2="7"/>
		<line class="st1" x1="20.5" y1="4" x2="20.5" y2="7"/>
		<line class="st1" x1="23.5" y1="4" x2="23.5" y2="7"/>
		<line class="st1" x1="26.5" y1="4" x2="26.5" y2="7"/>
		<line class="st1" x1="29.5" y1="4" x2="29.5" y2="7"/>
	</g>
	<rect x="2.5" y="2.5" class="st0" width="30" height="30"/>
	<rect x="2.5" y="20.5" class="st1" width="30" height="12"/>
	<rect x="2.5" y="8.5" class="st1" width="30" height="12"/>
</g>
</svg>
