<?xml version="1.0" encoding="utf-8"?>
<!-- Generator: Adobe Illustrator 21.0.0, SVG Export Plug-In . SVG Version: 6.00 Build 0)  -->
<svg version="1.1" id="Capa_1" xmlns="http://www.w3.org/2000/svg" xmlns:xlink="http://www.w3.org/1999/xlink" x="0px" y="0px"
	 viewBox="0 0 35 35" style="enable-background:new 0 0 35 35;" xml:space="preserve">
<style type="text/css">
	
		.st0{fill-rule:evenodd;clip-rule:evenodd;fill:none;stroke:#4D4D4D;stroke-linecap:round;stroke-linejoin:round;stroke-miterlimit:10;}
	.st1{fill:none;stroke:#4D4D4D;stroke-linecap:round;stroke-linejoin:round;stroke-miterlimit:10;}
</style>
<g>
	<g>
		<path class="st0" d="M6.9,23L6.9,23c0.5,0.5,1.9,1.4,2.6,1.5c-3.6,2.4-6.4,1.8-7,8h15h0.2h14.8c-0.5-6.1-3.2-5.8-7-8v0
			c1,0,2.3-0.8,2.9-1.5c-2.2,0-3.3-1.5-3.6-3.4c-0.4-2-0.5-4.2-0.6-5.6c-0.3,0.4-0.6,0.6-1,0.6c-0.6,2.4-2.6,4.4-2.6,4.4
			c0,0.7,0.5,2,0.6,2.5c-0.3,0.4-0.5,0.8-0.8,1.1c-1.8,1.5-4.9,1.5-6.4-1.1c0.3-0.7,0.7-1.8,0.6-2.5c0,0-2.1-1.7-2.6-4.4
			c-0.4,0-0.7-0.3-1-0.7c0,1.5-0.1,3.6-0.4,5.6C10.2,21.5,9.2,23,6.9,23L6.9,23z"/>
		<path class="st0" d="M14,8c-0.8,3-3.1,4.2-3.1,2.8C9-0.2,25.6-0.3,24.2,10.9c0,0.1-0.1,0.5-0.2,0.7c-0.1-0.1-0.2-0.1-0.3-0.1
			c-0.3-0.2-0.4-0.5-0.6-0.6c-0.5-0.5-1-0.1-1.9,0.1C18.2,11.9,14.7,10.8,14,8L14,8z"/>
	</g>
	<line class="st1" x1="13.5" y1="21.5" x2="9.5" y2="24.5"/>
	<line class="st1" x1="21.5" y1="21.5" x2="25.5" y2="24.5"/>
</g>
</svg>
