<?xml version="1.0" encoding="utf-8"?>
<!-- Generator: Adobe Illustrator 21.0.0, SVG Export Plug-In . SVG Version: 6.00 Build 0)  -->
<svg version="1.1" id="Capa_1" xmlns="http://www.w3.org/2000/svg" xmlns:xlink="http://www.w3.org/1999/xlink" x="0px" y="0px"
	 viewBox="0 0 35 35" style="enable-background:new 0 0 35 35;" xml:space="preserve">
<style type="text/css">
	
		.st0{fill-rule:evenodd;clip-rule:evenodd;fill:none;stroke:#4D4D4D;stroke-linecap:round;stroke-linejoin:round;stroke-miterlimit:10;}
	.st1{fill:none;stroke:#4D4D4D;stroke-linecap:round;stroke-linejoin:round;stroke-miterlimit:10;}
	.st2{fill:none;stroke:#4D4D4D;stroke-width:2;stroke-linecap:round;stroke-linejoin:round;stroke-miterlimit:10;}
</style>
<g>
	<g>
		<polygon class="st0" points="3.4,31.6 3.4,31.6 6.9,23.9 11.1,28.1 		"/>
		<rect x="15.9" y="2.1" transform="matrix(0.7071 0.7071 -0.7071 0.7071 16.9142 -8.663)" class="st1" width="6" height="28"/>
		<polygon class="st1" points="30.9,8.3 26.7,4.1 28.8,3.4 31.6,6.2 		"/>
		<line class="st1" x1="4.8" y1="28.8" x2="6.2" y2="30.2"/>
	</g>
	<g>
		<polygon class="st0" points="32,30.6 30.6,32 23.5,27.8 27.8,23.5 		"/>
		<line class="st1" x1="28.5" y1="28.5" x2="31.3" y2="31.3"/>
		<polyline class="st1" points="17.2,13 8,3.7 3.7,8 13.1,17.3 		"/>
		<polyline class="st1" points="17.8,22 23.5,27.8 27.8,23.5 22,17.8 		"/>
		<polygon class="st1" points="8,3.7 3.7,8 3,5.8 5.8,3 		"/>
		<line class="st2" x1="27.8" y1="27.8" x2="27.8" y2="27.8"/>
	</g>
	<line class="st1" x1="23.5" y1="25.5" x2="25.5" y2="23.5"/>
	<line class="st1" x1="22.5" y1="24.5" x2="24.5" y2="22.5"/>
	<line class="st1" x1="21.5" y1="23.5" x2="23.5" y2="21.5"/>
	<line class="st1" x1="23.5" y1="19.5" x2="19.5" y2="23.5"/>
	<line class="st1" x1="9.5" y1="23.5" x2="26.5" y2="6.5"/>
	<line class="st1" x1="11.5" y1="25.5" x2="28.5" y2="8.5"/>
	<line class="st1" x1="10.5" y1="24.5" x2="27.5" y2="7.5"/>
</g>
</svg>
