<?xml version="1.0" encoding="UTF-8"?>
<!-- Generator: Adobe Illustrator 21.0.0, SVG Export Plug-In . SVG Version: 6.00 Build 0)  -->
<svg version="1.1" id="Capa_1" xmlns="http://www.w3.org/2000/svg" xmlns:xlink="http://www.w3.org/1999/xlink" x="0px" y="0px" viewBox="0 0 376 97" style="enable-background:new 0 0 376 97;" xml:space="preserve">
<style type="text/css">
	.st0{fill:#2A6191;}
</style>
<g>
	<path class="st0" d="M2,66.2V30.8h28.8c2.7,0,5,0.1,6.8,0.4c1.8,0.3,3.3,0.8,4.4,1.5c1.1,0.7,1.9,1.6,2.3,2.7   c0.5,1.1,0.7,2.5,0.7,4.2c0,2.5-0.4,4.3-1.3,5.5c-0.9,1.2-2.1,2.1-3.6,2.5v0.1c2,0.3,3.5,1.2,4.5,2.4c1,1.3,1.6,3.2,1.6,5.7   c0,2-0.3,3.7-0.8,5c-0.5,1.3-1.3,2.4-2.3,3.1c-1,0.8-2.4,1.3-4,1.6c-1.6,0.3-3.5,0.5-5.6,0.5H2z M31.4,44.7c1.1,0,1.9-0.2,2.5-0.7   c0.6-0.5,0.9-1.3,0.9-2.6c0-1.3-0.3-2.2-0.9-2.7c-0.6-0.5-1.5-0.7-2.5-0.7H12.4v6.7H31.4z M31.6,58.7c1.6,0,2.7-0.3,3.3-0.9   c0.6-0.6,0.9-1.5,0.9-2.7c0-1.3-0.3-2.2-0.9-2.7c-0.6-0.5-1.7-0.8-3.3-0.8H12.4v7.2H31.6z"/>
	<path class="st0" d="M102.1,66.2H90.7l-3.3-6.3H65.1l-3.2,6.3H50.6l19.3-35.4h12.9L102.1,66.2z M83.7,52.5l-7.3-14.2h-0.3   l-7.2,14.2H83.7z"/>
	<path class="st0" d="M118,52.5v13.7h-10.5V30.8H118V44V52.5z M134.5,30.8h11.6l-16,17.4l15.9,17.9h-11.5L118,48.2L134.5,30.8z    M156,30.8h11.6l-16,17.4l15.9,17.9H156l-16.5-17.9L156,30.8z"/>
	<path class="st0" d="M217.9,66.2h-10.5V52.5H184v13.7h-10.5V30.8H184v12.9h23.4V30.8h10.5V66.2z"/>
	<path class="st0" d="M247.8,66.6c-3.4,0-6.3-0.1-8.8-0.2c-2.4-0.1-4.5-0.4-6.2-0.9c-1.7-0.4-3.1-1.1-4.2-1.9   c-1.1-0.8-1.9-1.8-2.5-3.1s-1-2.9-1.2-4.8c-0.2-1.9-0.3-4.1-0.3-6.8v-1c0-2.6,0.1-4.9,0.3-6.8c0.2-1.9,0.6-3.5,1.2-4.8   c0.6-1.3,1.4-2.4,2.5-3.2c1.1-0.8,2.5-1.4,4.2-1.8c1.7-0.4,3.8-0.7,6.2-0.8c2.4-0.1,5.4-0.2,8.8-0.2h1.6c3.4,0,6.3,0.1,8.8,0.2   c2.4,0.1,4.5,0.4,6.2,0.8c1.7,0.4,3.1,1,4.2,1.8c1.1,0.8,1.9,1.9,2.5,3.2c0.6,1.3,1,2.9,1.2,4.8c0.2,1.9,0.3,4.1,0.3,6.8v1   c0,2.6-0.1,4.9-0.3,6.8c-0.2,1.9-0.6,3.5-1.2,4.8c-0.6,1.3-1.4,2.4-2.5,3.2c-1.1,0.8-2.5,1.4-4.2,1.8c-1.7,0.4-3.8,0.7-6.2,0.8   c-2.4,0.1-5.4,0.2-8.8,0.2H247.8z M249.1,58.4c3.1,0,5.4-0.1,7.2-0.3c1.7-0.2,3-0.6,3.9-1.2c0.9-0.6,1.4-1.6,1.6-2.9   c0.2-1.3,0.3-3.1,0.3-5.3v-0.6c0-2.3-0.1-4-0.3-5.4c-0.2-1.3-0.7-2.3-1.6-2.9c-0.9-0.6-2.2-1.1-3.9-1.2c-1.7-0.2-4.1-0.3-7.2-0.3   h-0.9c-3.1,0-5.5,0.1-7.2,0.3c-1.7,0.2-3,0.6-3.9,1.2s-1.4,1.6-1.6,2.9c-0.2,1.3-0.3,3.1-0.3,5.4v0.6c0,2.2,0.1,4,0.3,5.3   c0.2,1.3,0.7,2.3,1.6,2.9c0.9,0.6,2.1,1.1,3.9,1.2c1.7,0.2,4.1,0.3,7.2,0.3H249.1z"/>
	<path class="st0" d="M300.6,66.6c-4.4,0-7.9-0.2-10.7-0.5c-2.8-0.4-5-1-6.6-2c-1.6-1-2.7-2.3-3.3-4c-0.6-1.7-0.9-3.8-0.9-6.5V30.8   h10.5v19.5c0,1.8,0.1,3.2,0.3,4.3c0.2,1.1,0.7,1.9,1.5,2.5c0.8,0.6,1.9,0.9,3.3,1.1c1.4,0.2,3.4,0.3,5.9,0.3h0.9   c2.5,0,4.4-0.1,5.9-0.3c1.5-0.2,2.6-0.6,3.3-1.1c0.8-0.6,1.2-1.4,1.4-2.4c0.2-1.1,0.3-2.5,0.3-4.3V30.8h10.5v22.8   c0,2.6-0.3,4.8-0.9,6.5c-0.6,1.7-1.7,3-3.2,4s-3.7,1.7-6.5,2c-2.8,0.4-6.4,0.5-10.8,0.5H300.6z"/>
</g>
</svg>