<?xml version="1.0" encoding="UTF-8"?>
<!-- Generator: Adobe Illustrator 21.0.0, SVG Export Plug-In . SVG Version: 6.00 Build 0)  -->
<svg version="1.1" id="Capa_1" xmlns="http://www.w3.org/2000/svg" xmlns:xlink="http://www.w3.org/1999/xlink" x="0px" y="0px" viewBox="0 0 376 97" style="enable-background:new 0 0 376 97;" xml:space="preserve">
<style type="text/css">
	.st0{fill:#88648A;}
	.st1{fill-rule:evenodd;clip-rule:evenodd;fill:#88648A;}
</style>
<g>
	<g>
		<path class="st0" d="M43.3,40.4c-3.7-1.9-9.4-2.9-17-3l-4.1,0.1c-0.6,0-1.1,0-1.8,0c-0.6,0-1.2,0-1.8,0.1    c-2.3,0.1-4.5,0.6-6.6,1.5c-2.1,0.8-3.6,2.4-4.6,4.8V22.3H2v51.9h5.4v-5.6c1.6,2.8,3.7,4.6,6.1,5.2c2.4,0.6,5.1,1,8.1,1    c0.4,0,0.8,0,1.2,0c0.4,0,0.8,0,1.2,0c0.4-0.1,0.8-0.1,1.2-0.1c0.4,0,0.8,0,1.1,0c7.8,0,13.5-0.9,17.1-2.8    c3.7-1.8,5.5-7.1,5.5-15.7C48.9,47.6,47.1,42.3,43.3,40.4z M43.1,56.1c0,0.1,0,0.1,0,0.2v1.6c0,0.4,0,0.8,0,1.3    c0,0.4,0,0.9-0.1,1.3c-0.1,1.7-0.4,3.3-1,4.8c-0.6,1.6-1.7,2.7-3.3,3.4C38,69,37,69.3,35.9,69.5c-1.1,0.2-2.3,0.3-3.5,0.4    c-1.1,0.1-2.1,0.2-3.2,0.2c-1,0-1.9,0-2.7,0c-0.9,0-1.9,0-3.1,0c-1.2,0-2.4-0.1-3.7-0.2c-1.4-0.1-2.7-0.2-4-0.4    c-1.3-0.2-2.4-0.5-3.3-0.8c-2-0.9-3.3-2.2-3.9-3.9c-0.6-1.7-1-3.6-1-5.5c-0.1-0.4-0.1-0.8-0.1-1.3c0-0.4,0-0.8,0-1.3    c0-3.4,0.4-6.4,1-9.1c0.7-2.6,3-4.2,7-4.7c1.8-0.3,3.6-0.4,5.4-0.5c1.8,0,3.6-0.1,5.4-0.1c0.8,0,1.5,0,2.3,0c0.7,0,1.5,0,2.3,0.1    c0.8,0,1.5,0,2.3,0.1c0.7,0,1.5,0.1,2.3,0.2c3.7,0.5,5.9,2,6.6,4.6c0.7,2.6,1.1,5.4,1.1,8.5C43.1,55.9,43.1,56,43.1,56.1z"/>
		<path class="st0" d="M279.6,46.2c-0.4-2-1.5-3.7-3.3-5.1c-1.5-1.2-3.2-2-5-2.5c-1.9-0.5-3.8-0.8-5.7-0.9c-1,0-1.9-0.1-2.8-0.1    c-0.9,0-1.8-0.1-2.7-0.1l-0.7,0.1c-0.3,0-0.5,0-0.8,0c-0.3,0-0.5,0-0.8,0c-3.3,0.1-6.4,0.5-9.3,1.4c-2.9,0.8-5,3-6.2,6.6v-7.5    h-5.4v36.2h5.4V53.8c0-5.4,1.7-8.7,5.2-9.8c3.4-1.1,7.2-1.7,11.3-1.7c0.2,0,0.4,0,0.6,0c0.2,0,0.4,0,0.6,0c4.2,0,7.8,0.5,10.6,1.6    c2.8,1.1,4.3,4.1,4.3,9v21.3h5.4V52.4C280.2,50.2,280,48.2,279.6,46.2z"/>
		<rect x="139.6" y="22.3" class="st0" width="5.4" height="51.9"/>
		<path class="st0" d="M111.1,40.3c-3.8-1.6-9-2.5-15.7-2.8c-0.2,0-0.4,0-0.7,0c-0.2,0-0.5,0-0.7,0c-0.3,0-0.6,0-0.9,0    c-0.3,0-0.6,0-0.9-0.1c-0.3,0-0.6,0-1,0c-0.3,0-0.7,0-1,0c-7.3,0-12.4,1.2-15.4,3.7c-2.9,2.5-4.4,7.5-4.4,15.1    c0,9.3,2.4,14.7,7.2,16.2c4.8,1.5,10.9,2.3,18.4,2.3c1,0,2,0,3,0c1,0,2-0.1,3-0.1c3.7-0.2,7-1.1,10-2.5c3-1.4,4.5-4.3,4.6-8.6    l-5.7,0.1c-0.1,1.3-0.4,2.3-1,3.2c-0.5,0.8-1.4,1.6-2.6,2.1c-0.9,0.4-2,0.7-3.3,0.9c-1.3,0.2-2.6,0.3-3.9,0.4    c-0.6,0-1.1,0.1-1.7,0.1c-0.6,0-1.1,0-1.7-0.1h-2.9c-0.7,0-1.5,0-2.2,0c-0.7,0-1.5,0-2.3-0.1c-1,0-2,0-3-0.2c-1-0.1-2-0.3-2.9-0.5    c-3.4-0.7-5.5-2.2-6.3-4.4c-0.8-2.2-1.2-4.9-1.3-7.9h40.8c0-0.1,0-0.3,0-0.5c0-0.2,0-0.3,0.1-0.5c0-0.1,0-0.3,0-0.5    c0-0.1,0-0.3,0-0.4C116.8,46.9,114.9,41.9,111.1,40.3z M76.1,52.3c0-0.3,0-0.6,0-1c0-0.3,0.1-0.7,0.1-1c0.1-1,0.3-2,0.7-3    c0.3-1,0.9-1.8,1.7-2.4c1-0.8,2.2-1.4,3.7-1.8c1.5-0.4,3.1-0.6,4.7-0.7c0.9-0.1,1.7-0.1,2.6-0.1c0.8,0,1.7-0.1,2.4-0.1h4.2    c0.7,0,1.5,0,2.2,0c0.8,0,1.5,0.1,2.3,0.1c1.5,0.1,3,0.3,4.5,0.7c1.5,0.4,2.6,1,3.5,1.9c0.9,0.8,1.5,1.7,1.8,2.7    c0.3,1,0.5,2,0.5,3.1c0,0.3,0,0.6,0,0.9c0,0.3,0,0.5,0,0.7H76.1z"/>
		<path class="st0" d="M208.3,40.3c-3.8-1.6-9-2.5-15.8-2.8c-0.2,0-0.4,0-0.7,0c-0.2,0-0.4,0-0.7,0c-0.3,0-0.6,0-0.9,0    c-0.3,0-0.6,0-0.9-0.1c-0.3,0-0.6,0-1,0c-0.3,0-0.7,0-1,0c-7.3,0-12.4,1.2-15.4,3.7c-2.9,2.5-4.4,7.5-4.4,15.1    c0,9.3,2.4,14.7,7.2,16.2c4.8,1.5,10.9,2.3,18.4,2.3c1,0,2,0,3,0c1,0,2-0.1,3-0.1c3.6-0.2,7-1.1,10-2.5c3-1.4,4.5-4.3,4.6-8.6    l-5.7,0.1c-0.1,1.3-0.4,2.3-1,3.2c-0.5,0.8-1.4,1.6-2.6,2.1c-0.9,0.4-2,0.7-3.3,0.9c-1.3,0.2-2.6,0.3-3.9,0.4    c-0.6,0-1.1,0.1-1.7,0.1c-0.6,0-1.1,0-1.7-0.1h-2.9c-0.7,0-1.5,0-2.2,0c-0.8,0-1.5,0-2.3-0.1c-1,0-2,0-3-0.2c-1-0.1-2-0.3-2.9-0.5    c-3.4-0.7-5.5-2.2-6.3-4.4c-0.8-2.2-1.2-4.9-1.3-7.9h40.8c0-0.1,0-0.3,0-0.5c0-0.2,0-0.3,0.1-0.5c0-0.1,0-0.3,0-0.5    c0-0.1,0-0.3,0-0.4C214,46.9,212.1,41.9,208.3,40.3z M173.3,52.3c0-0.3,0-0.6,0-1c0-0.3,0.1-0.7,0.1-1c0.1-1,0.3-2,0.6-3    c0.3-1,0.9-1.8,1.7-2.4c1-0.8,2.2-1.4,3.7-1.8c1.5-0.4,3.1-0.6,4.7-0.7c0.9-0.1,1.7-0.1,2.6-0.1c0.9,0,1.7-0.1,2.4-0.1h4.2    c0.7,0,1.4,0,2.2,0c0.7,0,1.5,0.1,2.3,0.1c1.5,0.1,3,0.3,4.5,0.7c1.5,0.4,2.6,1,3.5,1.9c0.9,0.8,1.5,1.7,1.8,2.7    c0.3,1,0.5,2,0.5,3.1c0,0.3,0,0.6,0,0.9c0,0.3,0,0.5,0,0.7H173.3z"/>
	</g>
	<g>
		<path class="st1" d="M282.7,30.5c2.1,0,3.9,1.7,3.9,3.9c0,2.1-1.7,3.9-3.9,3.9c-2.1,0-3.9-1.7-3.9-3.9    C278.9,32.2,280.6,30.5,282.7,30.5z M279.5,34.3c0,1.8,1.5,3.3,3.3,3.3c1.8,0,3.3-1.5,3.3-3.3c0-1.8-1.5-3.3-3.3-3.3    C280.9,31.1,279.5,32.5,279.5,34.3z"/>
		<path class="st0" d="M281.2,36.4v-4.1h1.8c0.4,0,0.6,0,0.8,0.1c0.2,0.1,0.3,0.2,0.4,0.4c0.1,0.2,0.2,0.4,0.2,0.6    c0,0.3-0.1,0.5-0.3,0.7c-0.2,0.2-0.5,0.3-0.9,0.4c0.2,0.1,0.2,0.1,0.3,0.2c0.2,0.1,0.3,0.3,0.4,0.5l0.7,1.1h-0.7l-0.5-0.9    c-0.2-0.2-0.3-0.4-0.4-0.6c-0.1-0.1-0.2-0.2-0.3-0.3c-0.1,0-0.2-0.1-0.2-0.1c-0.1,0-0.2,0-0.3,0h-0.6v1.8H281.2L281.2,36.4z     M281.7,34.1h1.2c0.2,0,0.4,0,0.6-0.1c0.1,0,0.2-0.1,0.3-0.2c0.1-0.1,0.1-0.2,0.1-0.4c0-0.2-0.1-0.4-0.2-0.5    c-0.1-0.1-0.4-0.2-0.7-0.2h-1.3V34.1z"/>
	</g>
</g>
</svg>