<?xml version="1.0" encoding="UTF-8"?>
<!-- Generator: Adobe Illustrator 21.0.0, SVG Export Plug-In . SVG Version: 6.00 Build 0)  -->
<svg version="1.1" id="Capa_1" xmlns="http://www.w3.org/2000/svg" xmlns:xlink="http://www.w3.org/1999/xlink" x="0px" y="0px" viewBox="0 0 376 97" style="enable-background:new 0 0 376 97;" xml:space="preserve">
<style type="text/css">
	.st0{fill:#E5007E;}
</style>
<g>
	<path class="st0" d="M2.6,67C2.2,66.1,2,65.2,2,64.2V32.6c0-2,0.7-3.7,2.1-5.1c1.4-1.4,3.1-2.1,5.1-2.1c2,0,3.7,0.7,5.1,2.1   c1.4,1.4,2.1,3.1,2.1,5.1v31.8c0,0.9-0.2,1.8-0.5,2.7c-0.4,0.9-0.9,1.7-1.6,2.4c-0.5,0.5-1.2,1-1.9,1.3c-0.7,0.3-1.4,0.5-2.1,0.6   c-0.2,0-0.3,0-0.5,0c-0.2,0-0.4,0-0.5,0c-0.3,0-0.5,0-0.8,0c-0.3,0-0.5-0.1-0.8-0.2c-0.6-0.1-1.3-0.3-1.9-0.7s-1.2-0.7-1.7-1.2   C3.5,68.7,2.9,67.9,2.6,67z"/>
	<path class="st0" d="M33.4,25.5c6.3,0,11.3,3.5,15.1,10.5c3.2-7,8.2-10.5,14.8-10.5c8.1,1.1,12.2,6,12.2,14.6   c0,10.5-9.2,20.8-27.7,30.9c-17.9-9.5-26.9-20.3-26.9-32.6C21.1,30.3,25.3,26,33.4,25.5z"/>
	<path class="st0" d="M81.4,68.8c-1.4-1.5-2.1-3.4-2.1-5.7V32.6c0-1,0.2-1.9,0.6-2.8c0.4-0.9,0.9-1.7,1.6-2.4c0.5-0.5,1.2-1,1.9-1.3   c0.7-0.4,1.4-0.6,2.1-0.7c0.2,0,0.3,0,0.5,0c0.2,0,0.4,0,0.5,0c0.3,0,0.5,0,0.8,0c0.3,0,0.5,0.1,0.8,0.2c0.6,0.1,1.3,0.4,1.9,0.7   c0.6,0.3,1.2,0.8,1.7,1.3c0.7,0.7,1.3,1.5,1.7,2.4c0.4,0.9,0.6,1.8,0.6,2.8v25.9h10.5c1.7,0,3.2,0.6,4.4,1.9   c1.2,1.2,1.8,2.7,1.8,4.4v0.1c0,1.7-0.6,3.1-1.8,4.3c-1.2,1.2-2.6,1.8-4.4,1.8H86.8C84.7,71,82.9,70.3,81.4,68.8z"/>
	<path class="st0" d="M117.9,71.2c-1.4-0.6-2.4-1.4-3.1-2.6c-0.7-1.1-1.1-2.4-1.1-3.8c0-0.4,0-0.8,0.1-1.2c0-0.4,0.1-0.9,0.2-1.3   c0-0.2,0.1-0.4,0.2-0.6c0.1-0.2,0.1-0.4,0.2-0.6l10.9-27.6c1-2.6,2.5-4.6,4.4-5.9c1.9-1.3,4.1-2,6.5-2c2.5,0,4.7,0.7,6.6,2   c1.9,1.3,3.4,3.3,4.4,5.9L157.8,61c0.1,0.2,0.2,0.4,0.2,0.6c0.1,0.2,0.1,0.4,0.2,0.6c0.1,0.5,0.1,0.9,0.2,1.3   c0,0.4,0.1,0.8,0.1,1.2c0,1.4-0.4,2.7-1.1,3.8c-0.7,1.1-1.8,2-3.2,2.5c-0.2,0.1-0.4,0.2-0.7,0.2c-0.3,0.1-0.5,0.1-0.8,0.2   c-0.3,0-0.5,0.1-0.8,0.1s-0.5,0-0.7,0c-1.4,0-2.8-0.4-4.1-1.3c-1.3-0.9-2.2-2.1-2.8-3.8l-0.6-2h-15.3l-0.8,2   c-0.5,1.6-1.5,2.9-2.7,3.8c-1.3,0.9-2.7,1.3-4.2,1.3c-0.2,0-0.4,0-0.7,0c-0.3,0-0.5-0.1-0.8-0.1s-0.5-0.1-0.8-0.2   C118.3,71.2,118.1,71.2,117.9,71.2L117.9,71.2z M138,52l-3.4-12l-3.4,12H138z"/>
	<path class="st0" d="M169.1,71.7c-1.9-0.1-3.6-0.8-5-2.3c-1.4-1.4-2.1-3.1-2.1-5.1V33.4c0-2.3,0.6-4.2,1.9-5.5c1.3-1.3,3.1-2,5.3-2   H183c4.4,0,7.9,1,10.6,2.9c2.7,2,4.5,4.7,5.3,8.2c0.1,0.3,0.1,0.6,0.2,1c0,0.4,0.1,0.7,0.1,1c0,0.3,0,0.7,0,1c0,0.3,0,0.7,0,1   c0,2-0.4,3.9-1.1,5.6c-0.7,1.7-1.7,3.1-3.1,4.2l-0.3,0.3l-1.4,1.1l-0.9,0.8l5.3,7c0.3,0.4,0.6,0.9,0.8,1.4c0.2,0.5,0.4,1,0.5,1.6   c0.1,0.3,0.1,0.5,0.2,0.8c0,0.3,0,0.5,0,0.8c0,0.1,0,0.3,0,0.4c0,0.1,0,0.3-0.1,0.4c-0.1,0.9-0.4,1.8-0.9,2.7   c-0.5,0.9-1.2,1.6-2.1,2.2c-0.4,0.3-0.8,0.5-1.2,0.7c-0.4,0.2-0.9,0.3-1.3,0.4c-0.3,0.1-0.6,0.1-0.9,0.2c-0.3,0-0.6,0.1-0.9,0.1   c-0.2,0-0.4,0-0.7,0c-0.2,0-0.5-0.1-0.7-0.2c-0.9-0.2-1.8-0.6-2.7-1.3c-0.9-0.6-1.7-1.5-2.4-2.5l-9.3-13.8v10.5   c0,2-0.7,3.7-2.1,5.1C172.8,70.9,171.1,71.6,169.1,71.7L169.1,71.7z M182.4,43.8c0.7,0,1.3-0.3,1.9-0.8c0.5-0.5,0.8-1.2,0.8-1.9   v-0.3c0-0.7-0.3-1.3-0.8-1.7c-0.5-0.4-1-0.7-1.6-0.7h-6.3v5.4H182.4z"/>
	<path class="st0" d="M207.1,71.2c-1.4-0.6-2.4-1.4-3.1-2.6c-0.7-1.1-1.1-2.4-1.1-3.8c0-0.4,0-0.8,0.1-1.2c0-0.4,0.1-0.9,0.2-1.3   c0-0.2,0.1-0.4,0.2-0.6c0.1-0.2,0.1-0.4,0.2-0.6l10.9-27.6c1-2.6,2.5-4.6,4.4-5.9c1.9-1.3,4.1-2,6.5-2c2.5,0,4.7,0.7,6.6,2   c1.9,1.3,3.4,3.3,4.4,5.9L247,61c0.1,0.2,0.2,0.4,0.2,0.6c0.1,0.2,0.1,0.4,0.2,0.6c0.1,0.5,0.1,0.9,0.2,1.3c0,0.4,0.1,0.8,0.1,1.2   c0,1.4-0.4,2.7-1.1,3.8c-0.7,1.1-1.8,2-3.2,2.5c-0.2,0.1-0.4,0.2-0.7,0.2c-0.3,0.1-0.5,0.1-0.8,0.2c-0.3,0-0.5,0.1-0.8,0.1   c-0.3,0-0.5,0-0.7,0c-1.4,0-2.8-0.4-4.1-1.3c-1.3-0.9-2.2-2.1-2.8-3.8l-0.6-2h-15.3l-0.8,2c-0.5,1.6-1.5,2.9-2.7,3.8   c-1.3,0.9-2.7,1.3-4.2,1.3c-0.2,0-0.4,0-0.7,0c-0.3,0-0.5-0.1-0.8-0.1s-0.5-0.1-0.8-0.2C207.5,71.2,207.3,71.2,207.1,71.2   L207.1,71.2z M227.2,52l-3.4-12l-3.4,12H227.2z"/>
</g>
</svg>