<?xml version="1.0" encoding="UTF-8"?>
<!-- Generator: Adobe Illustrator 21.0.0, SVG Export Plug-In . SVG Version: 6.00 Build 0)  -->
<svg version="1.1" id="Capa_1" xmlns="http://www.w3.org/2000/svg" xmlns:xlink="http://www.w3.org/1999/xlink" x="0px" y="0px" viewBox="0 0 376 97" style="enable-background:new 0 0 376 97;" xml:space="preserve">
<style type="text/css">
	.st0{fill:#99896E;}
</style>
<g>
	<g>
		<path class="st0" d="M217.1,67.6c-0.2,0.5-0.5,0.9-0.9,1.3c-0.4,0.4-0.9,0.7-1.4,0.9c-0.5,0.2-1,0.3-1.6,0.3    c-0.5,0-1.1-0.1-1.6-0.3c-0.5-0.2-1-0.5-1.3-0.9c-0.4-0.4-0.7-0.9-0.9-1.4c-0.2-0.5-0.3-1-0.3-1.6c0-0.5,0.1-1.1,0.3-1.6    c0.2-0.5,0.5-1,0.9-1.4c0.4-0.4,0.8-0.7,1.3-0.9c0.5-0.2,1-0.3,1.6-0.3c0.6,0,1.1,0.1,1.6,0.3c0.5,0.2,1,0.5,1.4,0.9    c0.4,0.4,0.7,0.8,0.9,1.3c0.2,0.5,0.3,1,0.3,1.6C217.4,66.6,217.3,67.2,217.1,67.6 M217.6,64.2c-0.2-0.6-0.6-1.1-1-1.5    c-0.4-0.5-0.9-0.8-1.5-1c-0.6-0.2-1.2-0.4-1.8-0.4c-0.6,0-1.3,0.1-1.8,0.4c-0.6,0.2-1.1,0.6-1.5,1c-0.5,0.5-0.8,1-1,1.6    c-0.2,0.6-0.4,1.2-0.4,1.8c0,0.6,0.1,1.2,0.4,1.8c0.2,0.6,0.6,1.1,1,1.5c0.5,0.5,1,0.8,1.5,1c0.6,0.2,1.2,0.4,1.8,0.4    c0.6,0,1.2-0.1,1.8-0.4c0.6-0.2,1.1-0.6,1.6-1.1c0.5-0.4,0.8-0.9,1-1.5c0.2-0.6,0.3-1.2,0.3-1.8C218,65.4,217.9,64.8,217.6,64.2"/>
		<path class="st0" d="M213.3,65.8h-1v-1.8h1c0.5,0,0.9,0.1,1.1,0.2c0.2,0.1,0.4,0.4,0.4,0.7c0,0.3-0.1,0.5-0.3,0.7    C214.2,65.7,213.8,65.8,213.3,65.8 M215.2,65.7c0.2-0.2,0.3-0.5,0.3-0.9c0-0.5-0.2-0.8-0.5-1.1c-0.3-0.2-0.9-0.3-1.6-0.3h-1.9v5.1    h0.8v-2.2h1.2l1.1,2.2h0.9l-1.1-2.3C214.7,66.1,215,66,215.2,65.7"/>
		<path class="st0" d="M36.1,58.4c0,4.3-2,7.7-5.9,10.1c-3.4,2.1-7.3,3.1-11.9,3.1c-4.7,0-9.6-1.1-14.8-3.4l-0.8,0.4H2v-9.3h1.4    c0.7,3.4,2.5,6,5.5,7.9c2.8,1.7,5.9,2.6,9.4,2.6c3.2,0,5.9-0.7,8.2-2.1c2.7-1.7,4-4,4-7c0-4.5-3.9-8-11.8-10.6    C8.3,46.9,3.1,42.5,3.1,37c0-3.9,1.8-6.9,5.4-9c3-1.8,6.6-2.7,10.7-2.7c4.4,0,8.7,1,12.9,2.9l0.9-0.4h0.6v7.8h-1.5    c-0.7-2.8-2.5-4.9-5.4-6.5c-2.6-1.4-5.4-2.2-8.5-2.2c-2.7,0-4.9,0.6-6.6,1.9c-2,1.4-2.9,3.4-2.9,5.9c0,4.2,4.4,7.6,13.3,10.4    C31.4,48.2,36.1,52.6,36.1,58.4"/>
		<polygon class="st0" points="54.3,69.1 59.2,69.1 59.2,70.5 43.5,70.5 43.5,69.1 48.4,69.1 48.4,27.8 43.5,27.8 43.5,26.4     59.2,26.4 59.2,27.8 54.3,27.8   "/>
		<path class="st0" d="M73.6,48.7c0,6.3,1.7,11.4,5,15.2C82.1,68,87,70,93.2,70c2,0,4.2-0.4,6.5-1.2c2.8-1,4.5-2.2,5-3.8V51.1h-6.3    h-1.6v-1.4h18.3v1.4h-4.2v15.4c-5.4,3.5-11.8,5.2-19.3,5.2c-7,0-12.9-2-17.6-6.1c-4.9-4.3-7.4-9.9-7.4-16.8    c0-7.1,2.6-12.9,7.7-17.3c4.9-4.2,10.9-6.3,18.1-6.3c2.6,0,5.5,0.3,8.7,1c4,0.8,6.7,1.8,8.1,2.9l0.8-0.3h0.6v9h-1.4    c-1.5-3.5-3.7-6.2-6.5-8C100,28,96.7,27,92.9,27c-6.3,0-11.1,2.1-14.5,6.3C75.2,37.2,73.6,42.4,73.6,48.7"/>
		<path class="st0" d="M133.2,48.6l8.7,0.1c8.8,0.1,13.2-3.5,13.2-10.8c0-7-4.2-10.4-12.7-10.2l-9.3,0.1V48.6z M133.2,50.1v19h4.9    v1.5h-15.7v-1.5h4.9V27.8h-4.9v-1.4h7.8l11.9-0.1c5.1-0.1,9.4,0.4,12.8,1.7c4.8,2,7.2,5.2,7.2,9.6c0,6.2-4.2,10-12.7,11.4    c2.9,1,5.3,2.4,7.1,4.3c1.2,1.2,2.7,3.2,4.4,5.9c1.8,2.9,3.2,4.9,4.3,6.1c2.8,2.9,5.7,4.5,8.7,4.7v0.4c-2.5,0.5-4.6,0.6-6.4,0.4    c-1.8-0.2-3.5-0.6-5.2-1.3c-2-0.9-3.6-2.2-4.8-3.9c-1.2-1.7-2.6-4.1-4.3-7.1c-2.8-4.9-6.6-7.7-11.4-8.4L133.2,50.1z"/>
		<polygon class="st0" points="205.1,26.4 205.1,27.7 210.7,27.7 195.8,49.2 180.6,27.8 186.2,27.8 186.2,26.4 169.9,26.4     169.9,27.8 174.1,27.8 191.3,53 191.3,69.1 186.4,69.1 186.4,70.5 202.1,70.5 202.1,69.1 197.2,69.1 197.2,52.3 213.8,27.8     218,27.8 218,26.4   "/>
	</g>
</g>
</svg>