<?xml version="1.0" encoding="UTF-8"?>
<!-- Generator: Adobe Illustrator 21.0.0, SVG Export Plug-In . SVG Version: 6.00 Build 0)  -->
<svg version="1.1" id="Capa_1" xmlns="http://www.w3.org/2000/svg" xmlns:xlink="http://www.w3.org/1999/xlink" x="0px" y="0px" viewBox="0 0 200 30" style="enable-background:new 0 0 200 30;" xml:space="preserve">
<style type="text/css">
	.st0{fill:#76254E;}
	.st1{fill-rule:evenodd;clip-rule:evenodd;fill:#76254E;}
</style>
<g>
	<g>
		<path class="st0" d="M112.8,2.8c-6.7,0-12.2,5.5-12.2,12.2s5.5,12.2,12.2,12.2S125,21.7,125,15S119.5,2.8,112.8,2.8z M112.8,21    c-3.3,0-6-2.7-6-6s2.7-6,6-6s6,2.7,6,6S116.1,21,112.8,21z"/>
		<path class="st0" d="M92,3.1H81.2v0h-3.1v23.9h6.1v-8.9H92c4.1,0,7.5-3.4,7.5-7.5C99.5,6.4,96.1,3.1,92,3.1z M92,11.9h-7.7V9.2H92    c0.8,0,1.4,0.6,1.4,1.4C93.3,11.3,92.7,11.9,92,11.9z"/>
		<path class="st0" d="M51.7,10.6c0-4.1-3.4-7.5-7.5-7.5H33.4v0h-3.1v23.9h6.1v-8.9h5.3l3.4,8.9h6.6l-3.8-9.9    C50.2,15.8,51.7,13.3,51.7,10.6z M36.5,9.2h7.7c0.8,0,1.4,0.6,1.4,1.4c0,0.8-0.6,1.4-1.4,1.4h-7.7V9.2z"/>
		<path class="st0" d="M69.4,16.2c0,2.8-2.1,4.8-4.8,4.8c-2.8,0-4.8-2.1-4.8-4.8V3.1h-6.1v13.1c0,6.1,4.8,11,11,11s11-4.8,11-11V3.1    h-6.1V16.2z"/>
		<path class="st0" d="M25,11.9h-3.7h-5.2v6.1h5.2c-1.1,1.8-3,3-5.2,3c-3.3,0-6-2.7-6-6s2.7-6,6-6c1.5,0,3,0.6,4,1.6l4.3-4.3    c-2.2-2.1-5.1-3.3-8.4-3.3C9.5,2.8,4,8.3,4,15s5.5,12.2,12.2,12.2S28.3,21.7,28.3,15c0-1.1-0.1-2.1-0.4-3.1H25z"/>
	</g>
	<g>
		<g>
			<ellipse class="st1" cx="180.1" cy="13" rx="2.2" ry="2.3"/>
			<ellipse class="st1" cx="185.7" cy="11.4" rx="2.2" ry="2.3"/>
			<ellipse class="st1" cx="188" cy="17.7" rx="2.2" ry="2.3"/>
			<ellipse class="st1" cx="182.1" cy="19.7" rx="2.2" ry="2.3"/>
			<ellipse class="st1" cx="174.6" cy="14.1" rx="1.7" ry="2.4"/>
			<ellipse transform="matrix(0.8159 -0.5782 0.5782 0.8159 20.337 105.8249)" class="st1" cx="176.3" cy="21" rx="1.7" ry="2.4"/>
			<ellipse transform="matrix(0.8868 -0.4622 0.4622 0.8868 17.2625 89.0076)" class="st1" cx="190.3" cy="9.3" rx="1.2" ry="1.6"/>
			<path class="st1" d="M179.2,8.9c0.7-0.1,1.1-0.9,1-1.8c-0.1-0.9-0.7-1.5-1.4-1.4c-0.7,0.1-1.1,0.9-1,1.8     C177.9,8.4,178.5,9,179.2,8.9z"/>
			<path class="st1" d="M184,7.4c0.5-0.3,0.6-1,0.1-1.8c-0.5-0.7-1.3-1.1-1.8-0.9c-0.5,0.3-0.6,1-0.1,1.8     C182.6,7.3,183.4,7.6,184,7.4z"/>
			<path class="st1" d="M186.4,5.8c0.6,0.5,1.1,0.5,1.2,0.1c0.1-0.4-0.3-1.1-0.9-1.5c-0.6-0.5-1.1-0.5-1.2-0.1     C185.4,4.6,185.8,5.3,186.4,5.8z"/>
			<path class="st1" d="M192.8,8.3c0.4,0.5,0.7,0.5,0.7,0.2c-0.1-0.4-0.4-1.1-0.9-1.5c-0.4-0.5-0.7-0.5-0.7-0.2     C192,7.2,192.4,7.9,192.8,8.3z"/>
			<path class="st1" d="M188.8,4.7c0.6,0.3,1,0.5,1,0.3c0-0.2-0.5-0.6-1.1-1c-0.6-0.4-1-0.5-1-0.3C187.8,3.9,188.3,4.3,188.8,4.7z"/>
			<path class="st1" d="M174.8,9.5c0.5,0.2,1.1-0.4,1.5-1.3c0.3-0.9,0.2-1.8-0.2-1.9c-0.5-0.2-1.1,0.4-1.5,1.3     C174.3,8.5,174.4,9.3,174.8,9.5z"/>
			<ellipse transform="matrix(0.4785 -0.8781 0.8781 0.4785 83.3075 156.0384)" class="st1" cx="173" cy="7.9" rx="1.3" ry="0.4"/>
			<path class="st1" d="M193.4,17.1c0.6-0.1,1-1.1,0.8-2.1c-0.2-1-0.9-1.8-1.5-1.6c-0.6,0.1-1,1.1-0.8,2.1     C192.1,16.5,192.8,17.3,193.4,17.1z"/>
			<ellipse transform="matrix(0.9542 -0.2991 0.2991 0.9542 5.0117 59.0664)" class="st1" cx="195.4" cy="13.2" rx="0.4" ry="1.2"/>
			<ellipse class="st1" cx="171.2" cy="14.4" rx="0.8" ry="2.3"/>
			
				<ellipse transform="matrix(0.8417 -0.5399 0.5399 0.8417 15.9533 96.7921)" class="st1" cx="173.1" cy="21.2" rx="0.5" ry="2.2"/>
			<ellipse class="st1" cx="184.5" cy="24.9" rx="1.8" ry="1.2"/>
			<ellipse transform="matrix(0.9316 -0.3635 0.3635 0.9316 4.6332 70.4652)" class="st1" cx="189.5" cy="22.9" rx="1.8" ry="1.2"/>
			<path class="st1" d="M194.5,18.7c-0.3-0.1-0.8,0.3-1.2,0.9c-0.4,0.6-0.5,1.2-0.2,1.3c0.3,0.1,0.8-0.3,1.2-0.9     C194.6,19.4,194.7,18.9,194.5,18.7z"/>
			<ellipse transform="matrix(0.408 -0.913 0.913 0.408 82.8483 178.7375)" class="st1" cx="179.3" cy="25.5" rx="0.8" ry="1.8"/>
		</g>
		<path class="st0" d="M162,15l11.9-11.9h-8.7l-6.4,6.4c-0.5-3.6-3.6-6.4-7.4-6.4h-9.2v0h-3.1v23.9h6.1v0h7.7c3.3,0,6.2-2.2,7.1-5.2    l5.2,5.2h8.7L162,15z M152.9,20.8h-7.7v-1.7v-1.1v-6.1v-0.7V9.2h6.2c0.8,0,1.4,0.6,1.4,1.4c0,0.8-0.6,1.4-1.4,1.4h-3.9v6.1h5.4    c0.8,0,1.4,0.6,1.4,1.4S153.7,20.8,152.9,20.8z"/>
	</g>
</g>
</svg>