<?xml version="1.0" encoding="utf-8"?>
<!-- Generator: Adobe Illustrator 21.0.0, SVG Export Plug-In . SVG Version: 6.00 Build 0)  -->
<svg version="1.1" id="Capa_1" xmlns="http://www.w3.org/2000/svg" xmlns:xlink="http://www.w3.org/1999/xlink" x="0px" y="0px"
	 viewBox="0 0 40 20" style="enable-background:new 0 0 40 20;" xml:space="preserve">
<style type="text/css">
	.st0{fill-rule:evenodd;clip-rule:evenodd;fill:#76254E;}
	.st1{fill:#76254E;}
</style>
<g>
	<g>
		<ellipse class="st0" cx="28.1" cy="8.7" rx="1.5" ry="1.5"/>
		<ellipse class="st0" cx="31.8" cy="7.7" rx="1.5" ry="1.5"/>
		<ellipse class="st0" cx="33.3" cy="11.8" rx="1.5" ry="1.5"/>
		<ellipse class="st0" cx="29.5" cy="13.1" rx="1.5" ry="1.5"/>
		<ellipse class="st0" cx="24.6" cy="9.4" rx="1.1" ry="1.5"/>
		<ellipse transform="matrix(0.8159 -0.5782 0.5782 0.8159 -3.296 17.4329)" class="st0" cx="25.7" cy="13.9" rx="1.1" ry="1.5"/>
		<ellipse transform="matrix(0.8868 -0.4622 0.4622 0.8868 1.0466 16.8054)" class="st0" cx="34.8" cy="6.3" rx="0.8" ry="1"/>
		<path class="st0" d="M27.6,6.1C28,6,28.3,5.5,28.2,4.9c-0.1-0.6-0.5-1-0.9-0.9c-0.4,0.1-0.7,0.6-0.7,1.2
			C26.7,5.7,27.1,6.1,27.6,6.1z"/>
		<path class="st0" d="M30.7,5c0.3-0.2,0.4-0.7,0.1-1.2c-0.3-0.5-0.8-0.7-1.2-0.6c-0.3,0.2-0.4,0.7-0.1,1.2C29.8,5,30.4,5.2,30.7,5z
			"/>
		<path class="st0" d="M32.3,4c0.4,0.3,0.7,0.3,0.8,0.1c0.1-0.2-0.2-0.7-0.6-1c-0.4-0.3-0.7-0.3-0.8-0.1C31.6,3.3,31.9,3.7,32.3,4z"
			/>
		<path class="st0" d="M36.5,5.7C36.7,6,36.9,6,36.9,5.8c0-0.2-0.3-0.7-0.6-1c-0.3-0.3-0.5-0.4-0.4-0.1C35.9,4.9,36.2,5.4,36.5,5.7z
			"/>
		<path class="st0" d="M33.9,3.3c0.4,0.2,0.7,0.3,0.6,0.2c0-0.1-0.3-0.4-0.7-0.7c-0.4-0.2-0.7-0.3-0.6-0.2C33.2,2.7,33.5,3,33.9,3.3
			z"/>
		<path class="st0" d="M24.7,6.4c0.3,0.1,0.7-0.3,1-0.9c0.2-0.6,0.2-1.1-0.2-1.2c-0.3-0.1-0.7,0.3-1,0.9C24.4,5.8,24.4,6.3,24.7,6.4
			z"/>
		<ellipse transform="matrix(0.4785 -0.8781 0.8781 0.4785 7.5757 23.4885)" class="st0" cx="23.6" cy="5.4" rx="0.9" ry="0.3"/>
		<path class="st0" d="M36.8,11.4c0.4-0.1,0.6-0.7,0.5-1.4c-0.1-0.7-0.6-1.2-1-1.1c-0.4,0.1-0.6,0.7-0.5,1.4
			C36,11,36.4,11.5,36.8,11.4z"/>
		<ellipse transform="matrix(0.9542 -0.2991 0.2991 0.9542 -0.8859 11.8195)" class="st0" cx="38.2" cy="8.8" rx="0.3" ry="0.8"/>
		<ellipse class="st0" cx="22.4" cy="9.6" rx="0.5" ry="1.5"/>
		<ellipse transform="matrix(0.8417 -0.5399 0.5399 0.8417 -3.8379 14.9605)" class="st0" cx="23.6" cy="14" rx="0.3" ry="1.4"/>
		<ellipse class="st0" cx="31" cy="16.4" rx="1.2" ry="0.8"/>
		<ellipse transform="matrix(0.9316 -0.3635 0.3635 0.9316 -3.1634 13.5094)" class="st0" cx="34.3" cy="15.2" rx="1.2" ry="0.8"/>
		<path class="st0" d="M37.5,12.4c-0.2-0.1-0.5,0.2-0.8,0.6c-0.3,0.4-0.3,0.8-0.1,0.9c0.2,0.1,0.5-0.2,0.8-0.6
			C37.6,12.9,37.7,12.5,37.5,12.4z"/>
		<ellipse transform="matrix(0.408 -0.913 0.913 0.408 0.9898 35.1775)" class="st0" cx="27.6" cy="16.8" rx="0.5" ry="1.1"/>
	</g>
	<path class="st1" d="M16.4,10l7.8-7.8h-5.6l-4.2,4.2C14,4,11.9,2.2,9.5,2.2h-6v0h-2v15.6h4v0h5c2.2,0,4-1.4,4.7-3.4l3.4,3.4h5.6
		L16.4,10z M10.5,13.8h-5v-1.1V12V8V7.6V6.2h4c0.5,0,0.9,0.4,0.9,0.9C10.4,7.6,10,8,9.5,8H7v4h3.5c0.5,0,0.9,0.4,0.9,0.9
		S11,13.8,10.5,13.8z"/>
</g>
</svg>
