<?xml version="1.0" encoding="utf-8"?>
<!-- Generator: Adobe Illustrator 21.0.0, SVG Export Plug-In . SVG Version: 6.00 Build 0)  -->
<svg version="1.1" id="Capa_1" xmlns="http://www.w3.org/2000/svg" xmlns:xlink="http://www.w3.org/1999/xlink" x="0px" y="0px"
	 viewBox="0 0 50 50" style="enable-background:new 0 0 50 50;" xml:space="preserve">
<style type="text/css">
	.st0{fill:none;stroke:#68B5FF;stroke-width:1.5;stroke-linecap:round;stroke-linejoin:round;stroke-miterlimit:10;}
</style>
<g>
	<g>
		<path class="st0" d="M34.3,20c-0.4,0.6-0.9,0.9-1.4,0.8C32,24.1,29.1,27,29.1,27c-0.1,1,0.6,2.7,0.9,3.5c-0.4,0.6-0.8,1.2-1.2,1.6
			c-2.5,2.2-6.9,2-9-1.6c0.4-1,1-2.5,0.9-3.5c0,0-2.9-2.4-3.6-6.2c-0.5,0-1-0.4-1.4-1"/>
		<path class="st0" d="M13.8,34.8C8.7,38.2,4.8,37.3,4,46h21h0.3H46c-0.7-8.5-4.5-8.2-9.8-11.2l0,0"/>
		<path class="st0" d="M20,11.6c-1.1,4.2-4.3,5.9-4.4,4C13,0.1,36.4-0.1,34.4,15.7c0,0.1-0.1,0.7-0.3,1c-0.1-0.1-0.3-0.1-0.4-0.1
			c-0.4-0.3-0.6-0.6-0.8-0.9c-0.7-0.6-1.3-0.2-2.6,0.2C26,17.1,21.1,15.6,20,11.6L20,11.6z"/>
	</g>
	<line class="st0" x1="19.4" y1="30.6" x2="13.8" y2="34.8"/>
	<line class="st0" x1="30.6" y1="30.6" x2="36.2" y2="34.8"/>
</g>
</svg>
