<?xml version="1.0" encoding="utf-8"?>
<!-- Generator: Adobe Illustrator 21.0.0, SVG Export Plug-In . SVG Version: 6.00 Build 0)  -->
<svg version="1.1" id="Capa_1" xmlns="http://www.w3.org/2000/svg" xmlns:xlink="http://www.w3.org/1999/xlink" x="0px" y="0px"
	 viewBox="0 0 80 80" style="enable-background:new 0 0 80 80;" xml:space="preserve">
<style type="text/css">
	.st0{fill:none;stroke:#4D4D4D;stroke-width:0.75;stroke-linecap:round;stroke-linejoin:round;stroke-miterlimit:10;}
</style>
<g>
	<g>
		<path class="st0" d="M28.1,35.8l0.8,2.8c0.1,0.3,0.2,0.6,0.2,0.8c0.1,0.3,0.1,0.5,0.2,0.7h0c0.1-0.2,0.1-0.5,0.2-0.7
			c0.1-0.3,0.2-0.5,0.3-0.8l1-2.8h0.5l0.9,2.8c0.1,0.3,0.2,0.6,0.3,0.8c0.1,0.3,0.2,0.5,0.2,0.7h0c0-0.2,0.1-0.5,0.2-0.7
			c0.1-0.2,0.2-0.5,0.3-0.8l0.9-2.8h0.5l-1.6,4.9h-0.4l-0.9-2.8c-0.1-0.3-0.2-0.6-0.3-0.8c-0.1-0.3-0.2-0.5-0.2-0.8h0
			c-0.1,0.3-0.2,0.6-0.2,0.9c-0.1,0.3-0.2,0.6-0.3,0.8l-1,2.7h-0.4l-1.5-4.9H28.1z"/>
		<path class="st0" d="M37.1,35.8l0.8,2.8c0.1,0.3,0.2,0.6,0.2,0.8c0.1,0.3,0.1,0.5,0.2,0.7h0c0.1-0.2,0.1-0.5,0.2-0.7
			c0.1-0.3,0.2-0.5,0.3-0.8l1-2.8h0.5l0.9,2.8c0.1,0.3,0.2,0.6,0.3,0.8c0.1,0.3,0.2,0.5,0.2,0.7h0c0-0.2,0.1-0.5,0.2-0.7
			c0.1-0.2,0.2-0.5,0.3-0.8l0.9-2.8h0.5l-1.6,4.9h-0.4l-0.9-2.8c-0.1-0.3-0.2-0.6-0.3-0.8c-0.1-0.3-0.2-0.5-0.2-0.8h0
			c-0.1,0.3-0.2,0.6-0.2,0.9c-0.1,0.3-0.2,0.6-0.3,0.8l-1,2.7h-0.4l-1.5-4.9H37.1z"/>
		<path class="st0" d="M46.1,35.8l0.8,2.8c0.1,0.3,0.2,0.6,0.2,0.8c0.1,0.3,0.1,0.5,0.2,0.7h0c0.1-0.2,0.1-0.5,0.2-0.7
			c0.1-0.3,0.2-0.5,0.3-0.8l1-2.8h0.5l0.9,2.8c0.1,0.3,0.2,0.6,0.3,0.8c0.1,0.3,0.2,0.5,0.2,0.7h0c0-0.2,0.1-0.5,0.2-0.7
			c0.1-0.2,0.2-0.5,0.3-0.8l0.9-2.8h0.5l-1.6,4.9h-0.4l-0.9-2.8c-0.1-0.3-0.2-0.6-0.3-0.8c-0.1-0.3-0.2-0.5-0.2-0.8h0
			c-0.1,0.3-0.2,0.6-0.2,0.9c-0.1,0.3-0.2,0.6-0.3,0.8l-1,2.7h-0.4l-1.5-4.9H46.1z"/>
	</g>
	<rect x="23" y="26.4" class="st0" width="33.9" height="22.1"/>
	<rect x="34.9" y="48.5" class="st0" width="10.2" height="5.1"/>
	<line class="st0" x1="28.1" y1="53.6" x2="51.9" y2="53.6"/>
</g>
</svg>
