<?xml version="1.0" encoding="utf-8"?>
<!-- Generator: Adobe Illustrator 21.0.0, SVG Export Plug-In . SVG Version: 6.00 Build 0)  -->
<svg version="1.1" id="Capa_1" xmlns="http://www.w3.org/2000/svg" xmlns:xlink="http://www.w3.org/1999/xlink" x="0px" y="0px"
	 viewBox="0 0 80 80" style="enable-background:new 0 0 80 80;" xml:space="preserve">
<style type="text/css">
	
		.st0{fill-rule:evenodd;clip-rule:evenodd;fill:none;stroke:#4D4D4D;stroke-width:0.75;stroke-linecap:round;stroke-linejoin:round;stroke-miterlimit:10;}
</style>
<g>
	<path class="st0" d="M29.8,45.3L29.8,45.3c0.5,0.5,1.2,0.8,1.9,0.9c-3.5,2.3-5.6,2.2-6.1,8.2H40h0.2h14.3c-0.5-5.8-2.6-6.1-6.3-8.1
		l0,0c0.9,0,1.8-0.3,2.4-0.9c-2.1,0-3.2-1.4-3.5-3.3c-0.4-2-0.5-4-0.6-5.4c-0.3,0.4-0.6,0.6-1,0.6c-0.6,2.3-2.5,4.3-2.5,4.3
		c0,0.7,0.4,1.9,0.6,2.4c-0.3,0.4-0.5,0.8-0.8,1.1c-1.7,1.5-4.7,1.4-6.2-1.1c0.3-0.7,0.7-1.7,0.6-2.4c0,0-2-1.7-2.5-4.3
		c-0.4,0-0.7-0.3-1-0.7c0,1.4-0.1,3.5-0.4,5.4C33,43.9,32,45.3,29.8,45.3L29.8,45.3z"/>
	<path class="st0" d="M36.6,30.8c-0.7,2.8-2.9,4.1-3,2.7C31.8,23,47.8,22.8,46.5,33.6c0,0.1-0.1,0.5-0.2,0.7
		c-0.1-0.1-0.2-0.1-0.3-0.1c-0.3-0.2-0.4-0.4-0.6-0.6c-0.5-0.4-0.9-0.1-1.8,0.1C40.7,34.6,37.3,33.6,36.6,30.8L36.6,30.8z"/>
</g>
</svg>
