<?xml version="1.0" encoding="UTF-8" standalone="no"?>
<!-- Created with Inkscape (http://www.inkscape.org/) -->

<svg
   xmlns:dc="http://purl.org/dc/elements/1.1/"
   xmlns:cc="http://creativecommons.org/ns#"
   xmlns:rdf="http://www.w3.org/1999/02/22-rdf-syntax-ns#"
   xmlns:svg="http://www.w3.org/2000/svg"
   xmlns="http://www.w3.org/2000/svg"
   xmlns:sodipodi="http://sodipodi.sourceforge.net/DTD/sodipodi-0.dtd"
   xmlns:inkscape="http://www.inkscape.org/namespaces/inkscape"
   width="210mm"
   height="203mm"
   viewBox="0 0 744.09449 719.2912"
   id="svg2"
   version="1.1"
   inkscape:version="0.91 r13725"
   sodipodi:docname="phone.svg">
  <defs
     id="defs4" />
  <sodipodi:namedview
     id="base"
     pagecolor="#ffffff"
     bordercolor="#666666"
     borderopacity="1.0"
     inkscape:pageopacity="0.0"
     inkscape:pageshadow="2"
     inkscape:zoom="0.35"
     inkscape:cx="375"
     inkscape:cy="520"
     inkscape:document-units="px"
     inkscape:current-layer="layer1"
     showgrid="false"
     inkscape:window-width="1560"
     inkscape:window-height="807"
     inkscape:window-x="0"
     inkscape:window-y="35"
     inkscape:window-maximized="1" />
  <metadata
     id="metadata7">
    <rdf:RDF>
      <cc:Work
         rdf:about="">
        <dc:format>image/svg+xml</dc:format>
        <dc:type
           rdf:resource="http://purl.org/dc/dcmitype/StillImage" />
        <dc:title></dc:title>
      </cc:Work>
    </rdf:RDF>
  </metadata>
  <g
     inkscape:label="Capa 1"
     inkscape:groupmode="layer"
     id="layer1"
     transform="translate(0,-333.07106)">
    <path
       inkscape:connector-curvature="0"
       id="path3361"
       d="M 549.03187,1034.1833 C 461.54564,1018.8923 345.28015,939.42476 218.68421,808.38989 94.827611,680.19056 28.157641,568.94481 26.528001,487.75732 c -0.76914,-38.31845 13.374493,-59.78679 71.718333,-108.8601 34.155146,-28.72814 43.097996,-32.61512 70.430696,-30.61255 30.36541,2.22475 32.86351,4.58727 82.96668,78.46091 57.45832,84.71815 62.41612,106.16464 36.3524,157.25355 -8.41845,16.50152 -15.30627,33.73846 -15.30627,38.30428 0,11.2829 132.66249,147.7114 155.53914,159.95461 15.71492,8.41043 22.7507,7.53 49.70235,-6.21972 52.57733,-26.82294 73.46669,-22.12991 158.64683,35.64163 79.45916,53.89145 88.38558,66.92605 76.97289,112.39785 -5.97352,23.80044 -90.82271,108.61972 -112.67102,112.63132 -10.03096,1.8418 -33.36263,0.7052 -51.84816,-2.5258 z m 78.4816,-90.1589 c 19.51751,-20.8658 35.40881,-40.66829 35.31402,-44.00553 -0.2186,-7.69545 -119.23806,-86.42567 -130.65296,-86.42567 -4.67601,0 -24.75579,9.1368 -44.6217,20.30398 -27.35972,15.37962 -41.45313,18.96537 -58.11002,14.78475 -29.98563,-7.5259 -207.3528,-185.12464 -214.89513,-215.17561 -4.29308,-17.10513 -0.816,-30.95707 14.78492,-58.89944 11.21885,-20.09401 20.39783,-40.00516 20.39783,-44.24705 0,-12.54488 -79.64125,-129.67567 -88.2987,-129.86358 -4.36738,-0.0949 -24.6603,16.80232 -45.09514,37.54918 -33.986137,34.50502 -36.772516,40.07507 -32.675536,65.32192 20.977246,129.26704 266.423196,395.17028 424.957196,460.37629 64.50333,26.5306 77.67773,24.3456 118.89522,-19.71924 z"
       style="fill:#333333" />
  </g>
</svg>
